<svg width="34" height="28" viewBox="0 0 34 28" fill="#00ff62" xmlns="http://www.w3.org/2000/svg">
<path d="M2.78906 15.1318L13.377 25.0166C13.8164 25.4267 14.3965 25.6552 15 25.6552C15.6035 25.6552 16.1836 25.4267 16.623 25.0166L16.7754 24.8759C15.6562 23.2294 15 21.2373 15 19.0927C15 13.3974 19.6172 8.78022 25.3125 8.78022C26.9707 8.78022 28.5352 9.1728 29.9238 9.86421C29.9766 9.48335 30 9.10249 30 8.71577V8.37592C30 4.28022 27.041 0.788033 23.0039 0.114205C20.332 -0.331107 17.6133 0.54194 15.7031 2.4521L15 3.15522L14.2969 2.4521C12.3867 0.54194 9.66797 -0.331107 6.99609 0.114205C2.95898 0.788033 0 4.28022 0 8.37592V8.71577C0 11.1474 1.00781 13.4736 2.78906 15.1318ZM33.75 19.0927C33.75 16.855 32.861 14.7088 31.2787 13.1265C29.6964 11.5442 27.5503 10.6552 25.3125 10.6552C23.0747 10.6552 20.9286 11.5442 19.3463 13.1265C17.7639 14.7088 16.875 16.855 16.875 19.0927C16.875 21.3305 17.7639 23.4766 19.3463 25.0589C20.9286 26.6413 23.0747 27.5302 25.3125 27.5302C27.5503 27.5302 29.6964 26.6413 31.2787 25.0589C32.861 23.4766 33.75 21.3305 33.75 19.0927ZM29.2559 16.5556C29.6191 16.9189 29.6191 17.5166 29.2559 17.8798L25.0371 22.0986C24.6738 22.4619 24.0762 22.4619 23.7129 22.0986L21.3691 19.7548C21.0059 19.3916 21.0059 18.7939 21.3691 18.4306C21.7324 18.0673 22.3301 18.0673 22.6934 18.4306L24.375 20.1123L27.9316 16.5556C28.2949 16.1923 28.8926 16.1923 29.2559 16.5556Z" fill="#00ff62"/>
</svg>
